<svg width="121" height="140" xmlns="http://www.w3.org/2000/svg">

 <g>
  <title>background</title>
  <rect fill="none" id="canvas_background" height="142" width="123" y="-1" x="-1"/>
 </g>
 <g>
  <title>Layer 1</title>
  <g stroke="null" transform="rotate(0.3115941286087036 58.9999923706068,70.0000000000007) " id="svg_1">
   <path fill="#20aaaa" stroke="null" id="svg_2" d="m58.999992,2.877327c-31.161167,0 -56.419121,24.832245 -56.419121,55.463522c0,42.122365 56.419121,78.781836 56.419121,78.781836s56.419121,-36.659471 56.419121,-78.781836c0,-30.631277 -25.257954,-55.463522 -56.419121,-55.463522zm0,98.570966c-24.217764,0 -43.848021,-19.29777 -43.848021,-43.107443c0,-23.807575 19.630524,-43.107443 43.848021,-43.107443s43.852555,19.299868 43.852555,43.107443c0,23.809935 -19.634792,43.107443 -43.852555,43.107443z"/>
   <path fill="#20aaaa" stroke="null" id="svg_3" d="m69.877449,52.607629c-3.440363,0 -6.550265,0.340857 -8.779473,0.89593c-0.680124,-1.105689 -1.887012,-1.866063 -3.2782,-1.940265c-0.606778,-2.198268 -1.887012,-5.108403 -3.660936,-8.128137c-3.396088,-5.777008 -7.318939,-9.797551 -8.76587,-8.975823c-1.446931,0.821466 0.12669,6.170305 3.520644,11.947313c1.726983,2.94527 3.593991,5.427498 5.198818,7.04893c-0.391272,0.62036 -0.617713,1.345862 -0.617713,2.127999c0,0.729697 0.197636,1.411674 0.542233,2.001619c-1.586957,1.625627 -3.422759,4.077178 -5.123071,6.974466c-3.393954,5.777008 -4.967575,11.126108 -3.520644,11.947313c1.446931,0.821728 5.369782,-3.19462 8.76587,-8.971366c1.720315,-2.93216 2.973877,-5.755245 3.603059,-7.931488c1.415726,-0.056897 2.64475,-0.817271 3.336077,-1.940265c2.229208,0.554811 5.33911,0.89593 8.779473,0.89593c6.787908,0 12.288915,-1.332752 12.288915,-2.975947s-5.501273,-2.976209 -12.289181,-2.976209z"/>
   <path fill="#20aaaa" stroke="null" id="svg_4" d="m59.551027,60.543575c-0.766807,2.163133 -1.942489,4.627794 -3.387286,7.087998c-0.751071,1.276118 -1.54695,2.503991 -2.353764,3.631442l-0.495557,14.551987l8.192432,0l-0.875627,-25.72162c-0.34433,0.183539 -0.706529,0.3364 -1.080198,0.450194z"/>
  </g>
  <text id="svg_5" font-family="'Helvetica Neue', Helvetica, Arial-Unicode, Arial, Sans-serif" font-weight="bold" font-size="5px" fill="#000000" y="527" x="0">Created by lastspark</text>
  <text id="svg_6" font-family="'Helvetica Neue', Helvetica, Arial-Unicode, Arial, Sans-serif" font-weight="bold" font-size="5px" fill="#000000" y="532" x="0">from the Noun Project</text>
 </g>
</svg>